<svg width="1809" height="282" viewBox="0 0 1809 282" fill="none" xmlns="http://www.w3.org/2000/svg">
<path d="M1784.85 221.823H1748.51L1768.12 128.472C1768.38 127.165 1768.64 126.119 1768.64 125.334C1768.64 122.197 1766.55 121.151 1762.1 121.151H1707.45C1702.22 121.151 1700.13 122.72 1698.82 128.472L1679.21 221.823H1642.6L1682.35 34.0757H1718.96L1704.05 103.893C1710.85 93.9561 1718.7 89.5108 1729.94 89.5108H1787.99C1802.11 89.5108 1808.39 93.9561 1808.39 105.461C1808.39 108.338 1808.12 111.737 1807.34 115.398L1784.85 221.823Z" fill="#0B0A0A"/>
<path d="M1590.02 221.825H1479.67L1485.95 191.493H1576.68C1582.17 191.493 1583.48 190.185 1584.53 185.217L1587.4 172.143C1587.67 171.358 1587.67 170.574 1587.67 170.051C1587.67 167.698 1586.36 166.652 1582.44 166.652H1511.57C1499.81 166.652 1494.58 161.683 1494.58 153.577C1494.58 151.747 1494.84 149.917 1495.36 147.825L1502.68 112.524C1505.82 96.8348 1513.67 89.5132 1531.97 89.5132H1641.27L1634.99 119.061H1544.78C1539.29 119.061 1537.2 120.892 1536.15 126.121L1533.8 137.104C1533.54 137.888 1533.54 138.673 1533.54 139.457C1533.54 142.333 1535.11 143.641 1539.03 143.641H1610.68C1622.7 143.641 1627.93 148.871 1627.93 156.977C1627.93 158.546 1627.67 160.376 1627.41 162.206L1619.57 198.814C1616.17 214.504 1608.32 221.825 1590.02 221.825Z" fill="#0B0A0A"/>
<path d="M1452.77 221.825H1337.45C1324.12 221.825 1318.63 216.857 1318.63 206.659C1318.63 204.044 1319.15 200.645 1319.93 196.984L1326.47 165.606C1330.66 145.733 1336.93 140.242 1353.67 140.242H1420.87L1416.16 162.729H1368.05C1363.08 162.729 1361.51 164.037 1360.46 169.528L1357.59 183.387C1357.33 184.956 1357.07 186.002 1357.07 187.048C1357.07 189.662 1358.37 190.447 1362.03 190.447H1423.22L1437.08 125.598C1437.34 124.552 1437.34 123.506 1437.34 122.722C1437.34 119.846 1435.77 118.277 1431.07 118.277H1341.38L1347.39 89.5132H1455.65C1470.81 89.5132 1476.56 94.4814 1476.56 105.202C1476.56 108.079 1476.04 111.478 1475.26 115.4L1452.77 221.825Z" fill="#0B0A0A"/>
<path d="M1287.24 221.823H1250.63L1290.37 34.0757H1326.98L1287.24 221.823Z" fill="#0B0A0A"/>
<path d="M1196.32 221.823H1159.71L1192.92 64.4081C1197.89 42.1818 1207.3 34.0757 1224.3 34.0757H1269.8L1263.78 62.5777H1236.33C1231.62 62.5777 1229.53 64.4081 1228.48 69.3763L1224.3 89.5108H1256.99L1250.97 118.274H1218.29L1196.32 221.823Z" fill="#0B0A0A"/>
<path d="M1128.03 221.825H1020.82C1005.92 221.825 999.904 216.857 999.904 206.136C999.904 203.26 1000.43 199.86 1001.21 195.938L1018.21 115.4C1021.87 97.6193 1029.71 89.5132 1048.8 89.5132H1138.23C1151.57 89.5132 1156.8 94.4814 1156.8 104.679C1156.8 107.556 1156.53 110.694 1155.75 114.354L1144.77 166.39H1056.65L1061.09 144.425H1114.44L1118.36 126.644C1118.62 125.337 1118.62 124.291 1118.62 123.245C1118.62 120.63 1117.31 119.584 1113.13 119.584H1060.57C1054.55 119.584 1053.25 121.153 1051.94 126.906L1039.65 183.91C1039.39 185.479 1039.13 186.786 1039.13 187.832C1039.13 190.97 1040.7 191.754 1045.14 191.754H1134.31L1128.03 221.825Z" fill="#0B0A0A"/>
<path d="M970.112 221.823H857.673C843.03 221.823 837.016 216.855 837.016 206.134C837.016 203.257 837.539 199.858 838.323 195.936L855.32 115.398C858.98 97.6169 869.178 89.5108 885.652 89.5108H948.147L941.349 121.151H897.68C892.189 121.151 890.359 122.458 889.051 128.472L877.807 182.077C877.546 183.384 877.285 184.692 877.285 185.476C877.285 188.353 878.853 189.399 883.299 189.399H940.041L972.989 34.0757H1009.86L970.112 221.823Z" fill="#0B0A0A"/>
<path d="M782.152 221.825H692.2C677.557 221.825 671.543 216.857 671.543 206.136C671.543 203.26 672.066 199.86 672.85 195.938L689.847 115.4C693.508 97.6193 701.352 89.5132 720.179 89.5132H810.131C825.297 89.5132 831.05 94.4814 831.05 105.202C831.05 108.079 830.527 111.478 829.742 115.4L812.746 195.938C808.823 213.719 801.24 221.825 782.152 221.825ZM779.014 182.341L790.258 128.475C790.519 127.167 790.781 126.121 790.781 125.337C790.781 122.199 788.689 121.153 783.721 121.153H731.946C726.455 121.153 724.625 122.722 723.579 128.475L712.335 182.341C712.073 183.648 711.812 184.694 711.812 185.74C711.812 188.355 713.381 189.401 717.565 189.401H769.339C775.615 189.401 777.968 187.571 779.014 182.341Z" fill="#0B0A0A"/>
<path d="M643.828 221.825H550.478C535.834 221.825 529.82 216.857 529.82 206.136C529.82 203.26 530.343 199.86 531.128 195.938L548.124 115.4C551.785 97.6193 559.63 89.5132 578.457 89.5132H671.807L665.009 121.676H590.485C584.732 121.676 583.164 122.983 581.856 128.736L570.612 181.556C570.351 182.864 570.089 183.91 570.089 184.956C570.089 187.832 571.658 188.878 576.103 188.878H650.627L643.828 221.825Z" fill="#0B0A0A"/>
<path fill-rule="evenodd" clip-rule="evenodd" d="M286.7 0.378418H201.751L50.901 148.911H135.851L0.960938 281.999H95.4352L282.324 89.9616H196.345L286.7 0.378418Z" fill="#FFC043"/>
<path fill-rule="evenodd" clip-rule="evenodd" d="M311.607 0.378906L258.578 54.9526H379.567L432.339 0.378906H311.607Z" fill="#0B0A0A"/>
<path fill-rule="evenodd" clip-rule="evenodd" d="M309.547 89.9601L256.518 144.276H377.506L430.021 89.7026H309.547V89.9601Z" fill="#0B0A0A"/>
<path fill-rule="evenodd" clip-rule="evenodd" d="M242.873 164.66L189.844 219.234H310.833L363.347 164.66H242.873Z" fill="#0B0A0A"/>
</svg>
