<svg width="201" height="32" viewBox="0 0 201 32" fill="none" xmlns="http://www.w3.org/2000/svg">
<path d="M198.372 24.9688H194.329L196.51 14.5857C196.539 14.4403 196.568 14.3239 196.568 14.2367C196.568 13.8877 196.336 13.7713 195.841 13.7713H189.763C189.181 13.7713 188.948 13.9458 188.803 14.5857L186.622 24.9688H182.55L186.971 4.08622H191.042L189.385 11.8518C190.141 10.7466 191.013 10.2521 192.264 10.2521H198.721C200.291 10.2521 200.989 10.7466 200.989 12.0263C200.989 12.3462 200.96 12.7243 200.873 13.1315L198.372 24.9688Z" fill="white"/>
<path d="M176.701 24.9689H164.428L165.126 21.5951H175.218C175.829 21.5951 175.974 21.4497 176.091 20.8971L176.411 19.4428C176.44 19.3556 176.44 19.2683 176.44 19.2102C176.44 18.9484 176.294 18.8321 175.858 18.8321H167.976C166.667 18.8321 166.086 18.2795 166.086 17.3778C166.086 17.1743 166.115 16.9707 166.173 16.738L166.987 12.8116C167.336 11.0665 168.209 10.2522 170.245 10.2522H182.402L181.704 13.5387H171.67C171.059 13.5387 170.826 13.7423 170.71 14.324L170.448 15.5455C170.419 15.6328 170.419 15.72 170.419 15.8073C170.419 16.1272 170.594 16.2726 171.03 16.2726H178.999C180.337 16.2726 180.919 16.8543 180.919 17.7559C180.919 17.9305 180.89 18.134 180.86 18.3376L179.988 22.4095C179.61 24.1545 178.737 24.9689 176.701 24.9689Z" fill="white"/>
<path d="M161.435 24.9689H148.609C147.125 24.9689 146.515 24.4163 146.515 23.282C146.515 22.9911 146.573 22.613 146.66 22.2059L147.387 18.7157C147.853 16.5053 148.551 15.8945 150.412 15.8945H157.887L157.363 18.3958H152.012C151.459 18.3958 151.284 18.5412 151.168 19.152L150.848 20.6935C150.819 20.868 150.79 20.9843 150.79 21.1007C150.79 21.3915 150.935 21.4788 151.343 21.4788H158.148L159.69 14.2658C159.719 14.1495 159.719 14.0331 159.719 13.9459C159.719 13.626 159.544 13.4515 159.021 13.4515H149.045L149.714 10.2522H161.755C163.442 10.2522 164.082 10.8048 164.082 11.9972C164.082 12.3172 164.023 12.6953 163.936 13.1315L161.435 24.9689Z" fill="white"/>
<path d="M143.024 24.9688H138.952L143.373 4.08622H147.445L143.024 24.9688Z" fill="white"/>
<path d="M132.912 24.9688H128.84L132.534 7.46001C133.086 4.98784 134.133 4.08622 136.024 4.08622H141.084L140.415 7.25642H137.362C136.838 7.25642 136.605 7.46001 136.489 8.01262L136.024 10.2521H139.659L138.99 13.4514H135.355L132.912 24.9688Z" fill="white"/>
<path d="M125.316 24.9689H113.391C111.733 24.9689 111.064 24.4163 111.064 23.2238C111.064 22.9039 111.123 22.5258 111.21 22.0895L113.1 13.1315C113.508 11.1538 114.38 10.2522 116.503 10.2522H126.45C127.933 10.2522 128.515 10.8048 128.515 11.9391C128.515 12.259 128.486 12.608 128.399 13.0152L127.177 18.803H117.376L117.87 16.3599H123.803L124.24 14.3822C124.269 14.2367 124.269 14.1204 124.269 14.0041C124.269 13.7132 124.123 13.5969 123.658 13.5969H117.812C117.143 13.5969 116.998 13.7714 116.852 14.4112L115.485 20.7516C115.456 20.9261 115.427 21.0716 115.427 21.1879C115.427 21.5369 115.602 21.6242 116.096 21.6242H126.014L125.316 24.9689Z" fill="white"/>
<path d="M107.751 24.9688H95.2449C93.6162 24.9688 92.9473 24.4162 92.9473 23.2238C92.9473 22.9038 93.0054 22.5257 93.0927 22.0895L94.9832 13.1315C95.3904 11.1537 96.5246 10.2521 98.357 10.2521H105.308L104.552 13.7713H99.6948C99.0841 13.7713 98.8805 13.9168 98.7351 14.5857L97.4844 20.548C97.4553 20.6934 97.4263 20.8388 97.4263 20.9261C97.4263 21.246 97.6008 21.3624 98.0952 21.3624H104.407L108.071 4.08622H112.172L107.751 24.9688Z" fill="white"/>
<path d="M86.8447 24.9689H76.8397C75.2109 24.9689 74.542 24.4163 74.542 23.2238C74.542 22.9039 74.6002 22.5258 74.6874 22.0895L76.5779 13.1315C76.9851 11.1538 77.8576 10.2522 79.9517 10.2522H89.9567C91.6436 10.2522 92.2835 10.8048 92.2835 11.9972C92.2835 12.3172 92.2253 12.6953 92.1381 13.1315L90.2476 22.0895C89.8113 24.0673 88.9679 24.9689 86.8447 24.9689ZM86.4957 20.5771L87.7463 14.5857C87.7754 14.4403 87.8045 14.324 87.8045 14.2367C87.8045 13.8877 87.5718 13.7714 87.0192 13.7714H81.2605C80.6497 13.7714 80.4461 13.9459 80.3298 14.5857L79.0792 20.5771C79.0501 20.7226 79.021 20.8389 79.021 20.9552C79.021 21.2461 79.1955 21.3624 79.6608 21.3624H85.4196C86.1176 21.3624 86.3793 21.1588 86.4957 20.5771Z" fill="white"/>
<path d="M71.4591 24.9689H61.076C59.4473 24.9689 58.7783 24.4163 58.7783 23.2238C58.7783 22.9039 58.8365 22.5258 58.9237 22.0895L60.8142 13.1315C61.2214 11.1538 62.0939 10.2522 64.188 10.2522H74.5712L73.815 13.8295H65.5259C64.886 13.8295 64.7115 13.975 64.5661 14.6148L63.3155 20.4899C63.2864 20.6353 63.2573 20.7516 63.2573 20.868C63.2573 21.1879 63.4318 21.3042 63.9263 21.3042H72.2153L71.4591 24.9689Z" fill="white"/>
<path fill-rule="evenodd" clip-rule="evenodd" d="M31.782 0.338043H22.3333L5.5547 16.859H15.0034L0 31.662H10.5081L31.2953 10.3021H21.732L31.782 0.338043Z" fill="#FFC043"/>
<path fill-rule="evenodd" clip-rule="evenodd" d="M34.5526 0.338097L28.6543 6.40818H42.1116L47.9812 0.338097H34.5526Z" fill="white"/>
<path fill-rule="evenodd" clip-rule="evenodd" d="M34.3231 10.3022L28.4248 16.3436H41.8821L47.7231 10.2735H34.3231V10.3022Z" fill="white"/>
<path fill-rule="evenodd" clip-rule="evenodd" d="M26.9071 18.6105L21.0088 24.6806H34.466L40.3071 18.6105H26.9071Z" fill="white"/>
</svg>
