<svg xmlns="http://www.w3.org/2000/svg" xmlns:xlink="http://www.w3.org/1999/xlink" xmlns:lucid="lucid" width="1059.73" height="645.53"><g transform="translate(-143.718348099457 -195.47058823529412)" lucid:page-tab-id="RYPsBDd4TkYz"><path d="M0 0h1500v1000H0z" fill="#fff"/><path d="M260 202.47a6 6 0 0 1 6-6h132a6 6 0 0 1 6 6v96c-24.05-17.03-39.02-17.03-48.1-17.03-14.4 0-33.55 17.03-47.95 17.03-8.93 0-24.05 0-47.95-17.03z" stroke="#3a414a" stroke-width="2" fill="#fff"/><path d="M268 211.47a6 6 0 0 1 6-6h132a6 6 0 0 1 6 6v96c-24.05-17.03-39.02-17.03-48.1-17.03-14.4 0-33.55 17.03-47.95 17.03-8.93 0-24.05 0-47.95-17.03z" stroke="#3a414a" stroke-width="2" fill="#fff"/><path d="M276 220.47a6 6 0 0 1 6-6h132a6 6 0 0 1 6 6v96c-24.05-17.03-39.02-17.03-48.1-17.03-14.4 0-33.55 17.03-47.95 17.03-8.93 0-24.05 0-47.95-17.03z" stroke="#3a414a" stroke-width="2" fill="#fff"/><use xlink:href="#a" transform="matrix(1,0,0,1,281,219.47058823529414) translate(22.672839506172835 24.80902777777778)"/><use xlink:href="#b" transform="matrix(1,0,0,1,281,219.47058823529414) translate(12.827160493827158 51.47569444444445)"/><use xlink:href="#c" transform="matrix(1,0,0,1,281,219.47058823529414) translate(58.382716049382715 51.47569444444445)"/><path d="M520 202.47a6 6 0 0 1 6-6h132a6 6 0 0 1 6 6v102c-24.05-18.04-39.02-18.04-48.1-18.04-14.4 0-33.55 18.04-47.95 18.04-8.93 0-24.05 0-47.95-18.04z" stroke="#3a414a" stroke-width="2" fill="#fff"/><path d="M528 212a6 6 0 0 1 6-6h132a6 6 0 0 1 6 6v102c-24.05-18.04-39.02-18.04-48.1-18.04-14.4 0-33.55 18.04-47.95 18.04-8.93 0-24.05 0-47.95-18.04z" stroke="#3a414a" stroke-width="2" fill="#fff"/><path d="M536 221.53a6 6 0 0 1 6-6h132a6 6 0 0 1 6 6v102c-24.05-18.04-39.02-18.04-48.1-18.04-14.4 0-33.55 18.03-47.95 18.03-8.93 0-24.05 0-47.95-18.04z" stroke="#3a414a" stroke-width="2" fill="#fff"/><use xlink:href="#d" transform="matrix(1,0,0,1,541,220.52941176470588) translate(36.84567901234568 17.77777777777778)"/><use xlink:href="#e" transform="matrix(1,0,0,1,541,220.52941176470588) translate(14.561728395061728 44.44444444444444)"/><use xlink:href="#c" transform="matrix(1,0,0,1,541,220.52941176470588) translate(41.10493827160494 71.11111111111111)"/><path d="M780 202.47a6 6 0 0 1 6-6h132a6 6 0 0 1 6 6v96c-24.05-17.03-39.02-17.03-48.1-17.03-14.4 0-33.55 17.03-47.95 17.03-8.93 0-24.05 0-47.95-17.03z" stroke="#3a414a" stroke-width="2" fill="#fff"/><path d="M788 211.47a6 6 0 0 1 6-6h132a6 6 0 0 1 6 6v96c-24.05-17.03-39.02-17.03-48.1-17.03-14.4 0-33.55 17.03-47.95 17.03-8.93 0-24.05 0-47.95-17.03z" stroke="#3a414a" stroke-width="2" fill="#fff"/><path d="M796 220.47a6 6 0 0 1 6-6h132a6 6 0 0 1 6 6v96c-24.05-17.03-39.02-17.03-48.1-17.03-14.4 0-33.55 17.03-47.95 17.03-8.93 0-24.05 0-47.95-17.03z" stroke="#3a414a" stroke-width="2" fill="#fff"/><use xlink:href="#f" transform="matrix(1,0,0,1,801,219.47058823529414) translate(1.0987654320987659 41.21527777777778)"/><path d="M1040 202.47a6 6 0 0 1 6-6h132a6 6 0 0 1 6 6v96c-24.05-17.03-39.02-17.03-48.1-17.03-14.4 0-33.55 17.03-47.95 17.03-8.93 0-24.05 0-47.95-17.03z" stroke="#3a414a" stroke-width="2" fill="#fff"/><path d="M1048 211.47a6 6 0 0 1 6-6h132a6 6 0 0 1 6 6v96c-24.05-17.03-39.02-17.03-48.1-17.03-14.4 0-33.55 17.03-47.95 17.03-8.93 0-24.05 0-47.95-17.03z" stroke="#3a414a" stroke-width="2" fill="#fff"/><path d="M1056 220.47a6 6 0 0 1 6-6h132a6 6 0 0 1 6 6v96c-24.05-17.03-39.02-17.03-48.1-17.03-14.4 0-33.55 17.03-47.95 17.03-8.93 0-24.05 0-47.95-17.03z" stroke="#3a414a" stroke-width="2" fill="#fff"/><use xlink:href="#g" transform="matrix(1,0,0,1,1061,219.47058823529414) translate(-1.3950617283950635 41.94444444444444)"/><path d="M360 526a6 6 0 0 1 6-6h148a6 6 0 0 1 6 6v108a6 6 0 0 1-6 6H366a6 6 0 0 1-6-6z" stroke="#3a414a" stroke-width="2" fill="#fff"/><use xlink:href="#h" transform="matrix(1,0,0,1,372,532) translate(24.203703703703702 53.77777777777778)"/><path d="M820 526a6 6 0 0 1 6-6h148a6 6 0 0 1 6 6v108a6 6 0 0 1-6 6H826a6 6 0 0 1-6-6z" stroke="#3a414a" stroke-width="2" fill="#fff"/><use xlink:href="#h" transform="matrix(1,0,0,1,832,532) translate(24.203703703703702 53.77777777777778)"/><path d="M235.8 520h-75.5c-8.8 0-16.08 7.32-16.08 16.08v87.84c0 8.88 7.3 16.08 16.1 16.08h83.6c8.9 0 16.08-7.32 16.08-16.08v-80.16L235.8 520zm14.24 103.92c0 3.48-2.66 6.12-6.13 6.12h-83.6c-3.46 0-6.12-2.64-6.12-6.12v-87.84c0-3.48 2.66-6.12 6.13-6.12h70.64v19.2h19.1v74.76z" stroke="#000" stroke-opacity="0" fill="#2a3282"/><path d="M179.07 561.4v8.04c0 4.68-1.85 6.96-5.33 6.96v6.48c3.82 0 5.33 2.28 5.33 6.48v8.88c0 4.68 1.16 7.68 3.13 9.6 2.2 2.76 6.13 3.84 11.8 3.84v-6.84c-1.85 0-3.47-.48-4.63-1.56-.7-1.2-1.5-2.64-1.5-4.92v-7.32c.46-5.76-1.5-9.6-4.98-11.16 3.8-1.44 5.43-4.92 5.43-10.68v-7.68c0-4.32 1.85-6.24 5.67-6.24v-6.84c-5.67 0-9.6 1.2-11.8 3.48-1.97 1.44-3.13 4.92-3.13 9.48zM221.33 569.44v-8.4c0-4.68-1.16-7.68-3-9.96-2.33-1.92-6.26-3.12-11.94-3.12v6.96c3.8 0 5.67 1.92 5.67 6.12v7.32c0 6.12 1.97 9.96 5.44 11.52-3.8 1.56-5.43 4.92-5.43 10.8v7.68c0 2.28-.35 3.84-1.16 4.92-1.15 1.2-2.2 1.56-4.62 1.56v6.84c5.8 0 9.6-1.08 11.92-3.48 1.97-1.92 3-5.4 3-9.96v-8.4c0-4.56 1.98-6.84 5.46-6.84v-6.6c-3.48 0-5.33-2.28-5.33-6.96z" stroke="#000" stroke-opacity="0" fill="#2a3282"/><use xlink:href="#i" transform="matrix(1,0,0,1,114.21834809945699,649) translate(33.12499999999999 14.4)"/><use xlink:href="#j" transform="matrix(1,0,0,1,114.21834809945699,649) translate(99.92500000000001 14.4)"/><path d="M1171.58 520h-75.5c-8.8 0-16.08 7.32-16.08 16.08v87.84c0 8.88 7.3 16.08 16.1 16.08h83.6c8.9 0 16.08-7.32 16.08-16.08v-80.16l-24.2-23.76zm14.24 103.92c0 3.48-2.66 6.12-6.13 6.12h-83.6c-3.48 0-6.14-2.64-6.14-6.12v-87.84c0-3.48 2.66-6.12 6.13-6.12h70.62v19.2h19.1v74.76z" stroke="#000" stroke-opacity="0" fill="#2a3282"/><path d="M1114.85 561.4v8.04c0 4.68-1.85 6.96-5.33 6.96v6.48c3.83 0 5.33 2.28 5.33 6.48v8.88c0 4.68 1.16 7.68 3.13 9.6 2.2 2.76 6.13 3.84 11.8 3.84v-6.84c-1.85 0-3.47-.48-4.63-1.56-.7-1.2-1.5-2.64-1.5-4.92v-7.32c.46-5.76-1.5-9.6-4.98-11.16 3.82-1.44 5.44-4.92 5.44-10.68v-7.68c0-4.32 1.87-6.24 5.7-6.24v-6.84c-5.7 0-9.62 1.2-11.82 3.48-1.97 1.44-3.13 4.92-3.13 9.48zM1157.1 569.44v-8.4c0-4.68-1.15-7.68-3-9.96-2.3-1.92-6.25-3.12-11.92-3.12v6.96c3.82 0 5.67 1.92 5.67 6.12v7.32c0 6.12 1.97 9.96 5.44 11.52-3.83 1.56-5.45 4.92-5.45 10.8v7.68c0 2.28-.35 3.84-1.16 4.92-1.17 1.2-2.2 1.56-4.64 1.56v6.84c5.8 0 9.6-1.08 11.92-3.48 1.97-1.92 3-5.4 3-9.96v-8.4c0-4.56 1.98-6.84 5.46-6.84v-6.6c-3.48 0-5.33-2.28-5.33-6.96z" stroke="#000" stroke-opacity="0" fill="#2a3282"/><use xlink:href="#k" transform="matrix(1,0,0,1,1050,649) translate(23.599999999999994 14.4)"/><use xlink:href="#j" transform="matrix(1,0,0,1,1050,649) translate(109.45 14.4)"/><path d="M636.4 751.87h67.2v56.26h-67.2z" fill="#fff" fill-opacity="0"/><path d="M698.85 770.35H641.1v-6.47h57.75v6.47m0 19.6H641.1v-6.47h57.75v6.48"/><path d="M340 313v96.75a6 6 0 0 0 6 6h88a6 6 0 0 1 6 6v80.87" stroke="#3a414a" fill="none"/><path d="M340.48 313h-.96v-.28l.96-.44z" stroke="#3a414a" stroke-width=".05" fill="#3a414a"/><path d="M440 517.38l-4.63-14.26h9.26z" stroke="#3a414a" fill="#3a414a"/><path d="M260.5 580.96h82.12" stroke="#3a414a" fill="none"/><path d="M260.5 581.43h-.5v-.94h.5z" stroke="#3a414a" stroke-width=".05" fill="#3a414a"/><path d="M357.38 580.96l-14.26 4.63v-9.27z" stroke="#3a414a" fill="#3a414a"/><path d="M600 319.7v93.4a6 6 0 0 1-6 6H446a6 6 0 0 0-6 6v77.52" stroke="#3a414a" fill="none"/><path d="M600.48 319.73h-.96v-.3l.96-.44z" stroke="#3a414a" stroke-width=".05" fill="#3a414a"/><path d="M440 517.38l-4.63-14.26h9.26z" stroke="#3a414a" fill="#3a414a"/><path d="M860 313v96.75a6 6 0 0 1-6 6H446a6 6 0 0 0-6 6v80.87" stroke="#3a414a" fill="none"/><path d="M860.48 313h-.96v-.28l.96-.44z" stroke="#3a414a" stroke-width=".05" fill="#3a414a"/><path d="M440 517.38l-4.63-14.26h9.26z" stroke="#3a414a" fill="#3a414a"/><path d="M1120 313v96.75a6 6 0 0 1-6 6H446a6 6 0 0 0-6 6v80.87" stroke="#3a414a" fill="none"/><path d="M1120.47 313h-.94v-.28l.94-.44z" stroke="#3a414a" stroke-width=".05" fill="#3a414a"/><path d="M440 517.38l-4.63-14.26h9.26z" stroke="#3a414a" fill="#3a414a"/><path d="M340 313v96.75a6 6 0 0 0 6 6h548a6 6 0 0 1 6 6v80.87" stroke="#3a414a" fill="none"/><path d="M340.48 313h-.96v-.28l.96-.44z" stroke="#3a414a" stroke-width=".05" fill="#3a414a"/><path d="M900 517.38l-4.63-14.26h9.26z" stroke="#3a414a" fill="#3a414a"/><path d="M600 319.7v93.4a6 6 0 0 0 6 6h288a6 6 0 0 1 6 6v77.52" stroke="#3a414a" fill="none"/><path d="M600.48 319.73h-.96v-.3l.96-.44z" stroke="#3a414a" stroke-width=".05" fill="#3a414a"/><path d="M900 517.38l-4.63-14.26h9.26z" stroke="#3a414a" fill="#3a414a"/><path d="M860 313v96.75a6 6 0 0 0 6 6h28a6 6 0 0 1 6 6v80.87" stroke="#3a414a" fill="none"/><path d="M860.48 313h-.96v-.28l.96-.44z" stroke="#3a414a" stroke-width=".05" fill="#3a414a"/><path d="M900 517.38l-4.63-14.26h9.26z" stroke="#3a414a" fill="#3a414a"/><path d="M1120 313v96.75a6 6 0 0 1-6 6H906a6 6 0 0 0-6 6v80.87" stroke="#3a414a" fill="none"/><path d="M1120.47 313h-.94v-.28l.94-.44z" stroke="#3a414a" stroke-width=".05" fill="#3a414a"/><path d="M900 517.38l-4.63-14.26h9.26z" stroke="#3a414a" fill="#3a414a"/><path d="M1079.5 581.8h-82.12" stroke="#3a414a" fill="none"/><path d="M1080 582.27h-.5v-.94h.5z" stroke="#3a414a" stroke-width=".05" fill="#3a414a"/><path d="M982.62 581.8l14.26-4.63v9.26z" stroke="#3a414a" fill="#3a414a"/><path d="M440 641.5v61.12" stroke="#3a414a" fill="none"/><path d="M440.48 641.5h-.96v-.5h.96z" stroke="#3a414a" stroke-width=".05" fill="#3a414a"/><path d="M440 717.38l-4.63-14.26h9.26z" stroke="#3a414a" fill="#3a414a"/><path d="M360 726a6 6 0 0 1 6-6h148a6 6 0 0 1 6 6v108a6 6 0 0 1-6 6H366a6 6 0 0 1-6-6z" stroke="#3a414a" stroke-width="2" fill="#fff"/><use xlink:href="#l" transform="matrix(1,0,0,1,372,732) translate(25.469135802469133 38.77777777777778)"/><use xlink:href="#m" transform="matrix(1,0,0,1,372,732) translate(24.234567901234563 65.44444444444446)"/><path d="M900 641.5v61.12" stroke="#3a414a" fill="none"/><path d="M900.48 641.5h-.96v-.5h.96z" stroke="#3a414a" stroke-width=".05" fill="#3a414a"/><path d="M900 717.38l-4.63-14.26h9.26z" stroke="#3a414a" fill="#3a414a"/><path d="M820 726a6 6 0 0 1 6-6h148a6 6 0 0 1 6 6v108a6 6 0 0 1-6 6H826a6 6 0 0 1-6-6z" stroke="#3a414a" stroke-width="2" fill="#fff"/><g><use xlink:href="#l" transform="matrix(1,0,0,1,832,732) translate(25.469135802469133 38.77777777777778)"/><use xlink:href="#m" transform="matrix(1,0,0,1,832,732) translate(24.234567901234563 65.44444444444446)"/></g><defs><path d="M30 0v-248h187v28H63v79h144v27H63v87h162V0H30" id="n"/><path d="M141 0L90-78 38 0H4l68-98-65-92h35l48 74 47-74h35l-64 92 68 98h-35" id="o"/><path d="M24-231v-30h32v30H24zM24 0v-190h32V0H24" id="p"/><path d="M135-143c-3-34-86-38-87 0 15 53 115 12 119 90S17 21 10-45l28-5c4 36 97 45 98 0-10-56-113-15-118-90-4-57 82-63 122-42 12 7 21 19 24 35" id="q"/><path d="M59-47c-2 24 18 29 38 22v24C64 9 27 4 27-40v-127H5v-23h24l9-43h21v43h35v23H59v120" id="r"/><path d="M117-194c89-4 53 116 60 194h-32v-121c0-31-8-49-39-48C34-167 62-67 57 0H25l-1-190h30c1 10-1 24 2 32 11-22 29-35 61-36" id="s"/><path d="M177-190C167-65 218 103 67 71c-23-6-38-20-44-43l32-5c15 47 100 32 89-28v-30C133-14 115 1 83 1 29 1 15-40 15-95c0-56 16-97 71-98 29-1 48 16 59 35 1-10 0-23 2-32h30zM94-22c36 0 50-32 50-73 0-42-14-75-50-75-39 0-46 34-46 75s6 73 46 73" id="t"/><g id="a"><use transform="matrix(0.06172839506172839,0,0,0.06172839506172839,0,0)" xlink:href="#n"/><use transform="matrix(0.06172839506172839,0,0,0.06172839506172839,14.814814814814813,0)" xlink:href="#o"/><use transform="matrix(0.06172839506172839,0,0,0.06172839506172839,25.925925925925924,0)" xlink:href="#p"/><use transform="matrix(0.06172839506172839,0,0,0.06172839506172839,30.80246913580247,0)" xlink:href="#q"/><use transform="matrix(0.06172839506172839,0,0,0.06172839506172839,41.91358024691358,0)" xlink:href="#r"/><use transform="matrix(0.06172839506172839,0,0,0.06172839506172839,48.086419753086425,0)" xlink:href="#p"/><use transform="matrix(0.06172839506172839,0,0,0.06172839506172839,52.96296296296297,0)" xlink:href="#s"/><use transform="matrix(0.06172839506172839,0,0,0.06172839506172839,65.30864197530865,0)" xlink:href="#t"/></g><path d="M232-93c-1 65-40 97-104 97C67 4 28-28 28-90v-158h33c8 89-33 224 67 224 102 0 64-133 71-224h33v155" id="u"/><g id="b"><use transform="matrix(0.06172839506172839,0,0,0.06172839506172839,0,0)" xlink:href="#u"/><use transform="matrix(0.06172839506172839,0,0,0.06172839506172839,15.987654320987653,0)" xlink:href="#s"/><use transform="matrix(0.06172839506172839,0,0,0.06172839506172839,28.333333333333332,0)" xlink:href="#p"/><use transform="matrix(0.06172839506172839,0,0,0.06172839506172839,33.20987654320987,0)" xlink:href="#r"/></g><path d="M127-220V0H93v-220H8v-28h204v28h-85" id="v"/><path d="M100-194c63 0 86 42 84 106H49c0 40 14 67 53 68 26 1 43-12 49-29l28 8c-11 28-37 45-77 45C44 4 14-33 15-96c1-61 26-98 85-98zm52 81c6-60-76-77-97-28-3 7-6 17-6 28h103" id="w"/><g id="c"><use transform="matrix(0.06172839506172839,0,0,0.06172839506172839,0,0)" xlink:href="#v"/><use transform="matrix(0.06172839506172839,0,0,0.06172839506172839,11.049382716049381,0)" xlink:href="#w"/><use transform="matrix(0.06172839506172839,0,0,0.06172839506172839,23.39506172839506,0)" xlink:href="#q"/><use transform="matrix(0.06172839506172839,0,0,0.06172839506172839,34.50617283950617,0)" xlink:href="#r"/><use transform="matrix(0.06172839506172839,0,0,0.06172839506172839,40.67901234567901,0)" xlink:href="#q"/></g><path d="M190 0L58-211 59 0H30v-248h39L202-35l-2-213h31V0h-41" id="x"/><path d="M206 0h-36l-40-164L89 0H53L-1-190h32L70-26l43-164h34l41 164 42-164h31" id="y"/><path d="M24 0v-261h32V0H24" id="z"/><path d="M179-190L93 31C79 59 56 82 12 73V49c39 6 53-20 64-50L1-190h34L92-34l54-156h33" id="A"/><g id="d"><use transform="matrix(0.06172839506172839,0,0,0.06172839506172839,0,0)" xlink:href="#x"/><use transform="matrix(0.06172839506172839,0,0,0.06172839506172839,15.987654320987653,0)" xlink:href="#w"/><use transform="matrix(0.06172839506172839,0,0,0.06172839506172839,28.333333333333332,0)" xlink:href="#y"/><use transform="matrix(0.06172839506172839,0,0,0.06172839506172839,44.32098765432099,0)" xlink:href="#z"/><use transform="matrix(0.06172839506172839,0,0,0.06172839506172839,49.19753086419753,0)" xlink:href="#A"/></g><path d="M143 4C61 4 22-44 18-125c-5-107 100-154 193-111 17 8 29 25 37 43l-32 9c-13-25-37-40-76-40-61 0-88 39-88 99 0 61 29 100 91 101 35 0 62-11 79-27v-45h-74v-28h105v86C228-13 192 4 143 4" id="B"/><path d="M114-163C36-179 61-72 57 0H25l-1-190h30c1 12-1 29 2 39 6-27 23-49 58-41v29" id="C"/><path d="M141-36C126-15 110 5 73 4 37 3 15-17 15-53c-1-64 63-63 125-63 3-35-9-54-41-54-24 1-41 7-42 31l-33-3c5-37 33-52 76-52 45 0 72 20 72 64v82c-1 20 7 32 28 27v20c-31 9-61-2-59-35zM48-53c0 20 12 33 32 33 41-3 63-29 60-74-43 2-92-5-92 41" id="D"/><path d="M85-194c31 0 48 13 60 33l-1-100h32l1 261h-30c-2-10 0-23-3-31C134-8 116 4 85 4 32 4 16-35 15-94c0-66 23-100 70-100zm9 24c-40 0-46 34-46 75 0 40 6 74 45 74 42 0 51-32 51-76 0-42-9-74-50-73" id="E"/><g id="e"><use transform="matrix(0.06172839506172839,0,0,0.06172839506172839,0,0)" xlink:href="#B"/><use transform="matrix(0.06172839506172839,0,0,0.06172839506172839,17.28395061728395,0)" xlink:href="#w"/><use transform="matrix(0.06172839506172839,0,0,0.06172839506172839,29.629629629629626,0)" xlink:href="#s"/><use transform="matrix(0.06172839506172839,0,0,0.06172839506172839,41.9753086419753,0)" xlink:href="#w"/><use transform="matrix(0.06172839506172839,0,0,0.06172839506172839,54.32098765432098,0)" xlink:href="#C"/><use transform="matrix(0.06172839506172839,0,0,0.06172839506172839,61.66666666666666,0)" xlink:href="#D"/><use transform="matrix(0.06172839506172839,0,0,0.06172839506172839,74.01234567901234,0)" xlink:href="#r"/><use transform="matrix(0.06172839506172839,0,0,0.06172839506172839,80.18518518518518,0)" xlink:href="#w"/><use transform="matrix(0.06172839506172839,0,0,0.06172839506172839,92.53086419753086,0)" xlink:href="#E"/></g><path d="M233-177c-1 41-23 64-60 70L243 0h-38l-65-103H63V0H30v-248c88 3 205-21 203 71zM63-129c60-2 137 13 137-47 0-61-80-42-137-45v92" id="F"/><path d="M115-194c55 1 70 41 70 98S169 2 115 4C84 4 66-9 55-30l1 105H24l-1-265h31l2 30c10-21 28-34 59-34zm-8 174c40 0 45-34 45-75s-6-73-45-74c-42 0-51 32-51 76 0 43 10 73 51 73" id="G"/><g id="f"><use transform="matrix(0.06172839506172839,0,0,0.06172839506172839,0,0)" xlink:href="#F"/><use transform="matrix(0.06172839506172839,0,0,0.06172839506172839,15.987654320987653,0)" xlink:href="#w"/><use transform="matrix(0.06172839506172839,0,0,0.06172839506172839,28.333333333333332,0)" xlink:href="#G"/><use transform="matrix(0.06172839506172839,0,0,0.06172839506172839,40.67901234567901,0)" xlink:href="#z"/><use transform="matrix(0.06172839506172839,0,0,0.06172839506172839,45.55555555555556,0)" xlink:href="#D"/><use transform="matrix(0.06172839506172839,0,0,0.06172839506172839,57.901234567901234,0)" xlink:href="#A"/><use transform="matrix(0.06172839506172839,0,0,0.06172839506172839,69.01234567901234,0)" xlink:href="#v"/><use transform="matrix(0.06172839506172839,0,0,0.06172839506172839,80.06172839506172,0)" xlink:href="#w"/><use transform="matrix(0.06172839506172839,0,0,0.06172839506172839,92.4074074074074,0)" xlink:href="#q"/><use transform="matrix(0.06172839506172839,0,0,0.06172839506172839,103.51851851851852,0)" xlink:href="#r"/><use transform="matrix(0.06172839506172839,0,0,0.06172839506172839,109.69135802469135,0)" xlink:href="#q"/></g><path d="M212-179c-10-28-35-45-73-45-59 0-87 40-87 99 0 60 29 101 89 101 43 0 62-24 78-52l27 14C228-24 195 4 139 4 59 4 22-46 18-125c-6-104 99-153 187-111 19 9 31 26 39 46" id="H"/><path d="M100-194c62-1 85 37 85 99 1 63-27 99-86 99S16-35 15-95c0-66 28-99 85-99zM99-20c44 1 53-31 53-75 0-43-8-75-51-75s-53 32-53 75 10 74 51 75" id="I"/><path d="M96-169c-40 0-48 33-48 73s9 75 48 75c24 0 41-14 43-38l32 2c-6 37-31 61-74 61-59 0-76-41-82-99-10-93 101-131 147-64 4 7 5 14 7 22l-32 3c-4-21-16-35-41-35" id="J"/><g id="g"><use transform="matrix(0.06172839506172839,0,0,0.06172839506172839,0,0)" xlink:href="#H"/><use transform="matrix(0.06172839506172839,0,0,0.06172839506172839,15.987654320987653,0)" xlink:href="#I"/><use transform="matrix(0.06172839506172839,0,0,0.06172839506172839,28.333333333333332,0)" xlink:href="#s"/><use transform="matrix(0.06172839506172839,0,0,0.06172839506172839,40.67901234567901,0)" xlink:href="#J"/><use transform="matrix(0.06172839506172839,0,0,0.06172839506172839,51.79012345679013,0)" xlink:href="#I"/><use transform="matrix(0.06172839506172839,0,0,0.06172839506172839,64.13580246913581,0)" xlink:href="#z"/><use transform="matrix(0.06172839506172839,0,0,0.06172839506172839,69.01234567901236,0)" xlink:href="#p"/><use transform="matrix(0.06172839506172839,0,0,0.06172839506172839,73.8888888888889,0)" xlink:href="#J"/><use transform="matrix(0.06172839506172839,0,0,0.06172839506172839,85.00000000000001,0)" xlink:href="#v"/><use transform="matrix(0.06172839506172839,0,0,0.06172839506172839,96.0493827160494,0)" xlink:href="#w"/><use transform="matrix(0.06172839506172839,0,0,0.06172839506172839,108.39506172839508,0)" xlink:href="#q"/><use transform="matrix(0.06172839506172839,0,0,0.06172839506172839,119.50617283950619,0)" xlink:href="#r"/><use transform="matrix(0.06172839506172839,0,0,0.06172839506172839,125.67901234567903,0)" xlink:href="#q"/></g><path d="M84 4C-5 8 30-112 23-190h32v120c0 31 7 50 39 49 72-2 45-101 50-169h31l1 190h-30c-1-10 1-25-2-33-11 22-28 36-60 37" id="K"/><g id="h"><use transform="matrix(0.06172839506172839,0,0,0.06172839506172839,0,0)" xlink:href="#n"/><use transform="matrix(0.06172839506172839,0,0,0.06172839506172839,14.814814814814813,0)" xlink:href="#o"/><use transform="matrix(0.06172839506172839,0,0,0.06172839506172839,25.925925925925924,0)" xlink:href="#w"/><use transform="matrix(0.06172839506172839,0,0,0.06172839506172839,38.2716049382716,0)" xlink:href="#J"/><use transform="matrix(0.06172839506172839,0,0,0.06172839506172839,49.38271604938271,0)" xlink:href="#K"/><use transform="matrix(0.06172839506172839,0,0,0.06172839506172839,61.728395061728385,0)" xlink:href="#r"/><use transform="matrix(0.06172839506172839,0,0,0.06172839506172839,67.90123456790123,0)" xlink:href="#I"/><use transform="matrix(0.06172839506172839,0,0,0.06172839506172839,80.24691358024691,0)" xlink:href="#C"/></g><path d="M140-251c81 0 123 46 123 126C263-46 219 4 140 4 59 4 17-45 17-125s42-126 123-126zm0 227c63 0 89-41 89-101s-29-99-89-99c-61 0-89 39-89 99S79-25 140-24" id="L"/><g id="i"><use transform="matrix(0.05,0,0,0.05,0,0)" xlink:href="#L"/><use transform="matrix(0.05,0,0,0.05,14,0)" xlink:href="#C"/><use transform="matrix(0.05,0,0,0.05,19.95,0)" xlink:href="#p"/><use transform="matrix(0.05,0,0,0.05,23.9,0)" xlink:href="#t"/><use transform="matrix(0.05,0,0,0.05,33.9,0)" xlink:href="#p"/><use transform="matrix(0.05,0,0,0.05,37.85,0)" xlink:href="#s"/><use transform="matrix(0.05,0,0,0.05,47.85,0)" xlink:href="#D"/><use transform="matrix(0.05,0,0,0.05,57.85,0)" xlink:href="#z"/></g><g id="j"><use transform="matrix(0.05,0,0,0.05,0,0)" xlink:href="#H"/><use transform="matrix(0.05,0,0,0.05,12.950000000000001,0)" xlink:href="#I"/><use transform="matrix(0.05,0,0,0.05,22.950000000000003,0)" xlink:href="#E"/><use transform="matrix(0.05,0,0,0.05,32.95,0)" xlink:href="#w"/></g><path d="M210-169c-67 3-38 105-44 169h-31v-121c0-29-5-50-35-48C34-165 62-65 56 0H25l-1-190h30c1 10-1 24 2 32 10-44 99-50 107 0 11-21 27-35 58-36 85-2 47 119 55 194h-31v-121c0-29-5-49-35-48" id="M"/><path d="M9 0v-24l116-142H16v-24h144v24L44-24h123V0H9" id="N"/><g id="k"><use transform="matrix(0.05,0,0,0.05,0,0)" xlink:href="#L"/><use transform="matrix(0.05,0,0,0.05,14,0)" xlink:href="#G"/><use transform="matrix(0.05,0,0,0.05,24,0)" xlink:href="#r"/><use transform="matrix(0.05,0,0,0.05,29,0)" xlink:href="#p"/><use transform="matrix(0.05,0,0,0.05,32.95,0)" xlink:href="#M"/><use transform="matrix(0.05,0,0,0.05,47.900000000000006,0)" xlink:href="#p"/><use transform="matrix(0.05,0,0,0.05,51.85,0)" xlink:href="#N"/><use transform="matrix(0.05,0,0,0.05,60.85,0)" xlink:href="#w"/><use transform="matrix(0.05,0,0,0.05,70.85000000000001,0)" xlink:href="#E"/></g><path d="M63-220v92h138v28H63V0H30v-248h175v28H63" id="O"/><g id="l"><use transform="matrix(0.06172839506172839,0,0,0.06172839506172839,0,0)" xlink:href="#O"/><use transform="matrix(0.06172839506172839,0,0,0.06172839506172839,13.518518518518517,0)" xlink:href="#K"/><use transform="matrix(0.06172839506172839,0,0,0.06172839506172839,25.864197530864196,0)" xlink:href="#s"/><use transform="matrix(0.06172839506172839,0,0,0.06172839506172839,38.20987654320987,0)" xlink:href="#J"/><use transform="matrix(0.06172839506172839,0,0,0.06172839506172839,49.32098765432099,0)" xlink:href="#r"/><use transform="matrix(0.06172839506172839,0,0,0.06172839506172839,55.49382716049383,0)" xlink:href="#p"/><use transform="matrix(0.06172839506172839,0,0,0.06172839506172839,60.370370370370374,0)" xlink:href="#I"/><use transform="matrix(0.06172839506172839,0,0,0.06172839506172839,72.71604938271605,0)" xlink:href="#s"/></g><path d="M160-131c35 5 61 23 61 61C221 17 115-2 30 0v-248c76 3 177-17 177 60 0 33-19 50-47 57zm-97-11c50-1 110 9 110-42 0-47-63-36-110-37v79zm0 115c55-2 124 14 124-45 0-56-70-42-124-44v89" id="P"/><path d="M106-169C34-169 62-67 57 0H25v-261h32l-1 103c12-21 28-36 61-36 89 0 53 116 60 194h-32v-121c2-32-8-49-39-48" id="Q"/><path d="M108 0H70L1-190h34L89-25l56-165h34" id="R"/><g id="m"><use transform="matrix(0.06172839506172839,0,0,0.06172839506172839,0,0)" xlink:href="#P"/><use transform="matrix(0.06172839506172839,0,0,0.06172839506172839,14.814814814814813,0)" xlink:href="#w"/><use transform="matrix(0.06172839506172839,0,0,0.06172839506172839,27.160493827160494,0)" xlink:href="#Q"/><use transform="matrix(0.06172839506172839,0,0,0.06172839506172839,39.50617283950617,0)" xlink:href="#D"/><use transform="matrix(0.06172839506172839,0,0,0.06172839506172839,51.85185185185185,0)" xlink:href="#R"/><use transform="matrix(0.06172839506172839,0,0,0.06172839506172839,62.96296296296296,0)" xlink:href="#p"/><use transform="matrix(0.06172839506172839,0,0,0.06172839506172839,67.8395061728395,0)" xlink:href="#I"/><use transform="matrix(0.06172839506172839,0,0,0.06172839506172839,80.18518518518519,0)" xlink:href="#C"/></g></defs></g></svg>