<svg width="665" height="90" viewBox="0 0 665 90" fill="none" xmlns="http://www.w3.org/2000/svg">
<path d="M133.98 79.4871C127.814 79.4871 125.279 77.4063 125.279 72.8666C125.279 71.656 125.506 70.2184 125.846 68.5538L132.997 34.5811C134.548 27.0905 137.839 23.6478 145.784 23.6478H185.166L182.291 37.1915H150.853C148.432 37.1915 147.751 37.7589 147.221 40.1802L142.492 62.4629C142.379 63.0304 142.265 63.4465 142.265 63.9005C142.265 65.1111 142.908 65.5651 144.8 65.5651H176.238L173.363 79.4492H133.98V79.4871Z" fill="#373A3D"/>
<path d="M193.753 79.4871C187.587 79.4871 185.052 77.4063 185.052 72.8666C185.052 71.656 185.279 70.2184 185.62 68.5538L192.77 34.5811C194.321 27.0905 197.612 23.6478 205.557 23.6478H243.502C249.895 23.6478 252.316 25.7285 252.316 30.2683C252.316 31.4789 252.089 32.9165 251.749 34.5811L244.599 68.5538C242.934 76.0444 239.756 79.4871 231.698 79.4871H193.753ZM235.103 40.1045C235.217 39.537 235.33 39.1209 235.33 38.7804C235.33 37.4563 234.46 37.0023 232.341 37.0023H210.513C208.205 37.0023 207.41 37.6454 206.994 40.1045L202.265 62.8034C202.152 63.3709 202.038 63.787 202.038 64.241C202.038 65.3381 202.682 65.7921 204.46 65.7921H226.288C228.937 65.7921 229.92 65.0354 230.374 62.8034L235.103 40.1045Z" fill="#373A3D"/>
<path d="M263.553 79.487C257.387 79.487 254.852 77.4063 254.852 72.8665C254.852 71.6559 255.079 70.2183 255.419 68.5537L262.569 34.581C264.121 27.0904 268.396 23.6477 275.357 23.6477H301.725L298.85 37.0023H280.426C278.118 37.0023 277.324 37.5697 276.794 40.1044L272.065 62.6898C271.952 63.2573 271.838 63.787 271.838 64.1274C271.838 65.338 272.481 65.792 274.373 65.792H298.282L312.167 0.305713H327.715L310.956 79.487H263.553Z" fill="#373A3D"/>
<path d="M332.369 79.4871C326.089 79.4871 323.555 77.4063 323.555 72.8666C323.555 71.656 323.782 70.2184 324.122 68.5538L331.272 34.5811C332.823 27.0905 336.115 23.6478 344.173 23.6478H381.891C387.528 23.6478 389.722 25.7285 389.722 30.0413C389.722 31.2519 389.608 32.576 389.268 34.1271L384.653 56.0694H347.502L349.394 46.8007H371.903L373.568 39.31C373.681 38.7426 373.681 38.3264 373.681 37.8724C373.681 36.7753 373.114 36.3213 371.374 36.3213H349.204C346.67 36.3213 346.102 36.9645 345.573 39.4235L340.39 63.4465C340.276 64.0897 340.163 64.6571 340.163 65.1111C340.163 66.4352 340.806 66.7757 342.697 66.7757H380.302L377.654 79.4492H332.445L332.369 79.4871Z" fill="#373A3D"/>
<path d="M390.933 79.487L404.93 13.0928C407.011 3.71055 410.983 0.305713 418.171 0.305713H437.352L434.817 12.3361H423.241C421.273 12.3361 420.365 13.0928 419.949 15.2113L418.171 23.6856H431.942L429.407 35.8295H415.637L406.368 79.487H390.933Z" fill="#373A3D"/>
<path d="M429.292 79.487L446.052 0.305713H461.487L444.728 79.487H429.292Z" fill="#373A3D"/>
<path d="M465.914 79.4871C460.277 79.4871 457.969 77.4063 457.969 73.0935C457.969 71.9964 458.196 70.5588 458.536 69.0077L461.298 55.7667C463.076 47.3681 465.724 45.0604 472.761 45.0604H501.097L499.13 54.5561H478.852C476.771 54.5561 476.09 55.1236 475.636 57.4313L474.426 63.2574C474.312 63.9005 474.199 64.3545 474.199 64.8084C474.199 65.9056 474.766 66.246 476.279 66.246H502.08L507.906 38.8939C508.02 38.4399 508.02 38.0238 508.02 37.6833C508.02 36.4727 507.377 35.7917 505.372 35.7917H467.54L470.075 23.6478H515.738C522.131 23.6478 524.552 25.7285 524.552 30.2683C524.552 31.4789 524.325 32.9165 523.985 34.5811L514.489 79.4492H465.876L465.914 79.4871Z" fill="#373A3D"/>
<path d="M525.877 79.487L528.525 66.6999H566.773C569.081 66.6999 569.648 66.1325 570.064 64.0517L571.275 58.5283C571.388 58.1879 571.388 57.8852 571.388 57.6582C571.388 56.6746 570.821 56.2206 569.194 56.2206H539.307C534.351 56.2206 532.157 54.1399 532.157 50.6972C532.157 49.9406 532.271 49.1461 532.498 48.276L535.6 33.3704C536.924 26.7499 540.215 23.6855 547.933 23.6855H594.012L591.363 36.1321H553.343C551.035 36.1321 550.127 36.8887 549.711 39.1208L548.727 43.7362C548.614 44.0767 548.614 44.3794 548.614 44.7199C548.614 45.9305 549.257 46.4979 550.922 46.4979H581.149C586.218 46.4979 588.413 48.6922 588.413 52.1348C588.413 52.778 588.299 53.5724 588.186 54.3291L584.894 69.7643C583.457 76.3848 580.165 79.487 572.448 79.487H525.915H525.877Z" fill="#373A3D"/>
<path d="M639.258 79.487L647.543 40.1044C647.656 39.537 647.77 39.1208 647.77 38.7803C647.77 37.4562 646.9 37.0023 645.008 37.0023H621.969C619.775 37.0023 618.867 37.6454 618.337 40.1044L610.052 79.487H594.617L611.376 0.305713H626.811L620.531 29.7386C623.406 25.5393 626.698 23.6856 631.465 23.6856H655.942C661.881 23.6856 664.529 25.5771 664.529 30.4196C664.529 31.6302 664.416 33.0678 664.075 34.6189L654.58 79.487H639.258Z" fill="#373A3D"/>
<path d="M25.0166 51.8125L0.136719 51.8388L27.276 9.06742H52.1822L25.0166 51.8125Z" fill="#FFC143"/>
<path d="M88.4645 21.4679H53.2595L61.1412 9.06735H96.3462L88.4645 21.4679Z" fill="#373A3D"/>
<path d="M95.9257 48.8436H60.7207L70.0474 34.1311H105.279L95.9257 48.8436Z" fill="#373A3D"/>
<path d="M72.0969 73.9075H44.7737L52.6554 61.507H79.9786L72.0969 73.9075Z" fill="#373A3D"/>
<path d="M25.9884 89.4869H1.10853L36.2609 34.1311H61.1408L25.9884 89.4869Z" fill="#FFC143"/>
</svg>
