<svg width="665" height="90" viewBox="0 0 665 90" fill="none" xmlns="http://www.w3.org/2000/svg">
<path d="M133.849 79.4871C127.682 79.4871 125.148 77.4063 125.148 72.8666C125.148 71.6559 125.375 70.2184 125.715 68.5538L132.865 34.5811C134.416 27.0905 137.708 23.6478 145.652 23.6478H185.035L182.16 37.1915H150.722C148.301 37.1915 147.62 37.7589 147.09 40.1802L142.361 62.4629C142.248 63.0304 142.134 63.4465 142.134 63.9005C142.134 65.1111 142.777 65.5651 144.669 65.5651H176.107L173.232 79.4492H133.849V79.4871Z" fill="white"/>
<path d="M193.622 79.4871C187.455 79.4871 184.921 77.4063 184.921 72.8666C184.921 71.6559 185.148 70.2184 185.488 68.5538L192.638 34.5811C194.189 27.0905 197.481 23.6478 205.425 23.6478H243.37C249.764 23.6478 252.185 25.7285 252.185 30.2683C252.185 31.4789 251.958 32.9165 251.618 34.5811L244.467 68.5538C242.803 76.0444 239.625 79.4871 231.567 79.4871H193.622ZM234.972 40.1045C235.085 39.537 235.199 39.1209 235.199 38.7804C235.199 37.4563 234.329 37.0023 232.21 37.0023H210.381C208.074 37.0023 207.279 37.6454 206.863 40.1045L202.134 62.8034C202.02 63.3709 201.907 63.787 201.907 64.241C201.907 65.3381 202.55 65.7921 204.328 65.7921H226.157C228.805 65.7921 229.789 65.0354 230.243 62.8034L234.972 40.1045Z" fill="white"/>
<path d="M263.422 79.487C257.255 79.487 254.72 77.4063 254.72 72.8665C254.72 71.6559 254.947 70.2183 255.288 68.5537L262.438 34.581C263.989 27.0904 268.264 23.6477 275.225 23.6477H301.594L298.718 37.0023H280.295C277.987 37.0023 277.192 37.5697 276.663 40.1044L271.934 62.6898C271.82 63.2573 271.707 63.787 271.707 64.1274C271.707 65.338 272.35 65.792 274.242 65.792H298.151L312.035 0.305713H327.584L310.825 79.487H263.422Z" fill="white"/>
<path d="M332.238 79.4871C325.958 79.4871 323.423 77.4063 323.423 72.8666C323.423 71.656 323.65 70.2184 323.991 68.5538L331.141 34.5811C332.692 27.0905 335.983 23.6478 344.042 23.6478H381.759C387.396 23.6478 389.591 25.7285 389.591 30.0413C389.591 31.2519 389.477 32.576 389.137 34.1271L384.521 56.0694H347.371L349.262 46.8007H371.772L373.437 39.31C373.55 38.7426 373.55 38.3264 373.55 37.8724C373.55 36.7753 372.983 36.3213 371.242 36.3213H349.073C346.538 36.3213 345.971 36.9645 345.441 39.4235L340.258 63.4465C340.145 64.0897 340.031 64.6571 340.031 65.1111C340.031 66.4352 340.675 66.7757 342.566 66.7757H380.171L377.522 79.4492H332.314L332.238 79.4871Z" fill="white"/>
<path d="M390.801 79.487L404.799 13.0928C406.88 3.71055 410.852 0.305713 418.04 0.305713H437.22L434.686 12.3361H423.109C421.142 12.3361 420.234 13.0928 419.818 15.2113L418.04 23.6856H431.811L429.276 35.8295H415.505L406.237 79.487H390.801Z" fill="white"/>
<path d="M429.161 79.487L445.92 0.305713H461.356L444.596 79.487H429.161Z" fill="white"/>
<path d="M465.782 79.4871C460.145 79.4871 457.838 77.4063 457.838 73.0935C457.838 71.9964 458.064 70.5588 458.405 69.0077L461.167 55.7667C462.945 47.3681 465.593 45.0604 472.63 45.0604H500.965L498.998 54.5561H478.72C476.64 54.5561 475.959 55.1236 475.505 57.4313L474.294 63.2574C474.181 63.9005 474.067 64.3545 474.067 64.8084C474.067 65.9056 474.635 66.246 476.148 66.246H501.949L507.775 38.8939C507.889 38.4399 507.889 38.0238 507.889 37.6833C507.889 36.4727 507.245 35.7917 505.24 35.7917H467.409L469.944 23.6478H515.606C522 23.6478 524.421 25.7285 524.421 30.2683C524.421 31.4789 524.194 32.9165 523.853 34.5811L514.358 79.4492H465.744L465.782 79.4871Z" fill="white"/>
<path d="M525.746 79.487L528.394 66.6999H566.642C568.949 66.6999 569.517 66.1325 569.933 64.0517L571.144 58.5283C571.257 58.1879 571.257 57.8852 571.257 57.6582C571.257 56.6746 570.69 56.2206 569.063 56.2206H539.176C534.22 56.2206 532.026 54.1399 532.026 50.6972C532.026 49.9406 532.139 49.1461 532.366 48.276L535.469 33.3704C536.793 26.7499 540.084 23.6855 547.802 23.6855H593.88L591.232 36.1321H553.212C550.904 36.1321 549.996 36.8887 549.58 39.1208L548.596 43.7362C548.483 44.0767 548.483 44.3794 548.483 44.7199C548.483 45.9305 549.126 46.4979 550.79 46.4979H581.018C586.087 46.4979 588.281 48.6922 588.281 52.1348C588.281 52.778 588.168 53.5724 588.054 54.3291L584.763 69.7643C583.325 76.3848 580.034 79.487 572.316 79.487H525.784H525.746Z" fill="white"/>
<path d="M639.127 79.487L647.412 40.1044C647.525 39.537 647.639 39.1208 647.639 38.7803C647.639 37.4562 646.768 37.0023 644.877 37.0023H621.838C619.643 37.0023 618.735 37.6454 618.206 40.1044L609.921 79.487H594.485L611.245 0.305713H626.68L620.4 29.7386C623.275 25.5393 626.566 23.6856 631.333 23.6856H655.81C661.75 23.6856 664.398 25.5771 664.398 30.4196C664.398 31.6302 664.284 33.0678 663.944 34.6189L654.448 79.487H639.127Z" fill="white"/>
<path d="M24.8853 51.8125L0.00537109 51.8388L27.1447 9.06742H52.0509L24.8853 51.8125Z" fill="#FFC143"/>
<path d="M88.3331 21.4679H53.1282L61.0099 9.06735H96.2148L88.3331 21.4679Z" fill="white"/>
<path d="M95.7944 48.8436H60.5894L69.9161 34.1311H105.147L95.7944 48.8436Z" fill="white"/>
<path d="M71.9656 73.9075H44.6423L52.524 61.507H79.8473L71.9656 73.9075Z" fill="white"/>
<path d="M25.857 89.4869H0.977173L36.1295 34.1311H61.0094L25.857 89.4869Z" fill="#FFC143"/>
</svg>
